{"title":"Seven Psychopaths 2012 SYNCED DVDRip R5 XViD-TiCKLE TiME","uid":7996092,"size":1428210468,"categoryP":"video","categoryS":"movies","magnet":"?xt=urn:btih:5df720c307be0b5a66697f274d8af431d047596e&amp;dn=Seven+Psychopaths+2012+SYNCED+DVDRip+R5+XViD-TiCKLE+TiME&amp;tr=udp%3A%2F%2Ftracker.openbittorrent.com%3A80&amp;tr=udp%3A%2F%2Fopen.demonii.com%3A1337&amp;tr=udp%3A%2F%2Ftracker.coppersurfer.tk%3A6969&amp;tr=udp%3A%2F%2Fexodus.desync.com%3A6969","seeders":1,"leechers":2,"uploader":"srkfan","files":4,"time":1357621015,"description":" &lt;a href=&quot; http://www.silvertorrent.org&quot; rel=&quot;nofollow&quot; target=&quot;_NEW&quot;&gt; http://www.silvertorrent.org&lt;/a&gt;\n\n  &lt;a href=&quot;\nhttp://www.shotpix.com/images/08096634903738710469.png&quot; rel=&quot;nofollow&quot; target=&quot;_NEW&quot;&gt;\nhttp://www.shotpix.com/images/08096634903738710469.png&lt;/a&gt;\n  &lt;a href=&quot;\nhttp://whysoblu.com/wp-content/uploads/2012/12/Seven-Psychopaths-Blu-ray.jpg&quot; rel=&quot;nofollow&quot; target=&quot;_NEW&quot;&gt;\nhttp://whysoblu.com/wp-content/uploads/2012/12/Seven-Psychopaths-Blu-ray.jpg&lt;/a&gt;\n  &lt;a href=&quot;\nhttp://www.imdb.com/title/tt1931533/&quot; rel=&quot;nofollow&quot; target=&quot;_NEW&quot;&gt;\nhttp://www.imdb.com/title/tt1931533/&lt;/a&gt;\n\n\nVideo: 720x288 @ 1600Kbps 2pass\nAudio: English MP3 128Kbps\nSubtitles : None\nSample: Yes, included\n\n\nSources: \nVideo ...Sem.psihopatov.2012.D.DVD / Thx\n\nAudio ..........p2p DVDSCR / Thx\n\n\nComplete name                            : Seven.Psychopaths.2012.SYNCED.DVDRip.R5.XViD-TiCKLE.TiME.avi\nFormat                                   : AVI\nFormat/Info                              : Audio Video Interleave\nFile size                                : 1.32 GiB\nDuration                                 : 1h 45mn\nOverall bit rate                         : 1 795 Kbps\nWriting application                      : VirtualDubMod 1.5.10.3 (build 2550/release)\nWriting library                          : VirtualDub build 32842/release\n\nVideo\nID                                       : 0\nFormat                                   : MPEG-4 Visual\nFormat profile                           : Advanced Simple@L5\nFormat settings, BVOP                    : 2\nFormat settings, QPel                    : No\nFormat settings, GMC                     : No warppoints\nFormat settings, Matrix                  : Default (H.263)\nMuxing mode                              : Packed bitstream\nCodec ID                                 : XVID\nCodec ID/Hint                            : XviD\nDuration                                 : 1h 45mn\nBit rate                                 : 1 658 Kbps\nWidth                                    : 704 pixels\nHeight                                   : 288 pixels\nDisplay aspect ratio                     : 2.40:1\nFrame rate                               : 25.000 fps\nColor space                              : YUV\nChroma subsampling                       : 4:2:0\nBit depth                                : 8 bits\nScan type                                : Progressive\nCompression mode                         : Lossy\nBits/(Pixel*Frame)                       : 0.327\nStream size                              : 1.22 GiB (92%)\nWriting library                          : XviD 64\n\nAudio\nID                                       : 1\nFormat                                   : MPEG Audio\nFormat version                           : Version 1\nFormat profile                           : Layer 3\nCodec ID                                 : 55\nCodec ID/Hint                            : MP3\nDuration                                 : 1h 45mn\nBit rate mode                            : Constant\nBit rate                                 : 128 Kbps\nChannel(s)                               : 2 channels\nSampling rate                            : 48.0 KHz\nCompression mode                         : Lossy\nStream size                              : 96.7 MiB (7%)\nAlignment                                : Split accross interleaves\nInterleave, preload duration             : 500 ms\nWriting library                          : LAME3.98.2\n\n &lt;a href=&quot;\nhttp://www.imdb.com/title/tt1931533/&quot; rel=&quot;nofollow&quot; target=&quot;_NEW&quot;&gt;\nhttp://www.imdb.com/title/tt1931533/&lt;/a&gt;\n\nRunTime: 105 Mins\n\nPlot:\nA struggling screenwriter inadvertently becomes entangled in the Los Angeles criminal underworld after his oddball friends kidnap a gangster's beloved Shih Tzu.\n\n  &lt;a href=&quot;\nhttp://img99.imageshack.us/img99/8403/52223901.jpg&quot; rel=&quot;nofollow&quot; target=&quot;_NEW&quot;&gt;\nhttp://img99.imageshack.us/img99/8403/52223901.jpg&lt;/a&gt;  &lt;a href=&quot;\nhttp://img152.imageshack.us/img152/2442/10879804.jpg&quot; rel=&quot;nofollow&quot; target=&quot;_NEW&quot;&gt;\nhttp://img152.imageshack.us/img152/2442/10879804.jpg&lt;/a&gt;  &lt;a href=&quot;\nhttp://img4.imageshack.us/img4/3012/12818510.jpg&quot; rel=&quot;nofollow&quot; target=&quot;_NEW&quot;&gt;\nhttp://img4.imageshack.us/img4/3012/12818510.jpg&lt;/a&gt;  &lt;a href=&quot;\nhttp://img22.imageshack.us/img22/5951/59790910.jpg&quot; rel=&quot;nofollow&quot; target=&quot;_NEW&quot;&gt;\nhttp://img22.imageshack.us/img22/5951/59790910.jpg&lt;/a&gt;  &lt;a href=&quot;\nhttp://img59.imageshack.us/img59/1174/74005638.jpg&quot; rel=&quot;nofollow&quot; target=&quot;_NEW&quot;&gt;\nhttp://img59.imageshack.us/img59/1174/74005638.jpg&lt;/a&gt;  &lt;a href=&quot;\nhttp://img507.imageshack.us/img507/498/15082776.jpg&quot; rel=&quot;nofollow&quot; target=&quot;_NEW&quot;&gt;\nhttp://img507.imageshack.us/img507/498/15082776.jpg&lt;/a&gt;\t","torrent":{"xt":"urn:btih:5df720c307be0b5a66697f274d8af431d047596e","amp;dn":"Seven+Psychopaths+2012+SYNCED+DVDRip+R5+XViD-TiCKLE+TiME","amp;tr":["udp%3A%2F%2Ftracker.openbittorrent.com%3A80","udp%3A%2F%2Fopen.demonii.com%3A1337","udp%3A%2F%2Ftracker.coppersurfer.tk%3A6969","udp%3A%2F%2Fexodus.desync.com%3A6969"],"infoHash":"5df720c307be0b5a66697f274d8af431d047596e","infoHashBuffer":{"type":"Buffer","data":[93,247,32,195,7,190,11,90,102,105,127,39,77,138,244,49,208,71,89,110]},"announce":[],"urlList":[]}}